<svg data-v-423bf9ae="" xmlns="http://www.w3.org/2000/svg" viewBox="0 0 366 90" class="iconLeft"> <!----><!----><!----><g data-v-423bf9ae="" id="eb248a4d-5856-436f-b726-4840066ad50f" fill="#000000" transform="matrix(5.741626899055351,0,0,5.741626899055351,102.76428780979055,-6.244019085031169)"><path d="M1.26 14.08L2.87 14.08L2.87 12.80C3.42 13.66 4.31 14.14 5.50 14.14C7.63 14.14 9.03 12.61 9.03 10.39C9.03 8.12 7.59 6.58 5.47 6.58C4.31 6.58 3.42 7.06 2.87 7.92L2.87 3.70L1.26 3.70ZM2.87 10.33C2.87 8.93 3.81 7.92 5.14 7.92C6.47 7.92 7.41 8.95 7.41 10.33C7.41 11.76 6.47 12.77 5.14 12.77C3.81 12.77 2.87 11.77 2.87 10.33ZM10.01 10.36C10.01 12.60 11.59 14.14 13.90 14.14C16.20 14.14 17.78 12.60 17.78 10.36C17.78 8.11 16.20 6.58 13.90 6.58C11.59 6.58 10.01 8.11 10.01 10.36ZM11.62 10.37C11.62 8.95 12.56 7.97 13.90 7.97C15.23 7.97 16.17 8.95 16.17 10.37C16.17 11.82 15.23 12.80 13.90 12.80C12.56 12.80 11.62 11.82 11.62 10.37ZM18.84 11.84C18.84 13.16 19.85 14.15 21.46 14.15C22.54 14.15 23.39 13.83 23.93 13.17L23.93 14.08L25.51 14.08L25.49 9.20C25.48 7.56 24.40 6.58 22.48 6.58C21.07 6.58 20.31 6.90 19.28 7.52L19.94 8.64C20.68 8.13 21.42 7.88 22.13 7.88C23.31 7.88 23.91 8.44 23.91 9.38L23.91 9.60L21.66 9.60C19.87 9.62 18.84 10.49 18.84 11.84ZM20.36 11.77C20.36 11.06 20.85 10.78 21.90 10.78L23.91 10.78L23.91 11.47C23.83 12.28 22.95 12.88 21.80 12.88C20.90 12.88 20.36 12.45 20.36 11.77ZM26.91 8.12L27.96 8.12L27.96 11.98C27.96 13.51 28.92 14.15 30.04 14.15C30.67 14.15 31.29 13.96 31.88 13.61L31.47 12.38C31.04 12.59 30.69 12.70 30.35 12.70C29.85 12.70 29.55 12.46 29.55 11.69L29.55 8.12L31.75 8.12L31.75 6.92L29.55 6.92L29.55 4.87L27.96 4.87L27.96 6.92L26.91 6.92ZM32.66 10.37C32.66 12.61 34.17 14.14 36.47 14.14C37.76 14.14 38.82 13.68 39.55 12.88L38.70 11.97C38.15 12.53 37.41 12.84 36.60 12.84C35.42 12.84 34.54 12.12 34.29 10.98L39.91 10.98C40.11 8.29 39.05 6.58 36.43 6.58C34.22 6.59 32.66 8.12 32.66 10.37ZM34.26 9.80C34.44 8.61 35.27 7.87 36.44 7.87C37.66 7.87 38.46 8.60 38.51 9.80ZM41.59 14.08L43.20 14.08L43.20 10.19C43.33 8.92 44.28 8.04 45.78 8.12L45.78 6.58C44.60 6.58 43.71 7.11 43.20 8.12L43.20 6.64L41.59 6.64Z"></path></g><defs data-v-423bf9ae=""><linearGradient data-v-423bf9ae="" gradientTransform="rotate(25)" id="6d515995-3f00-46ce-afb8-6da451bae976" x1="0%" y1="0%" x2="100%" y2="0%"><stop data-v-423bf9ae="" offset="0%" style="stop-color: rgb(0, 102, 120); stop-opacity: 1;"></stop><stop data-v-423bf9ae="" offset="100%" style="stop-color: rgb(79, 168, 255); stop-opacity: 1;"></stop></linearGradient></defs><g data-v-423bf9ae="" id="d2f715da-f407-44cf-83f3-cea779773379" transform="matrix(1.2531502763064803,0,0,1.2531502763064803,-17.566509431663597,-17.567140443002685)" stroke="none" fill="url(#6d515995-3f00-46ce-afb8-6da451bae976)"><path d="M50 14.091C30.2 14.091 14.091 30.2 14.091 50 14.091 69.801 30.2 85.91 50 85.91c19.801 0 35.909-16.109 35.909-35.91 0-19.8-16.108-35.909-35.909-35.909zm0 4c16.923 0 30.804 13.244 31.84 29.91H18.16c1.036-16.667 14.917-29.91 31.84-29.91zm0 63.819c-16.922 0-30.803-13.243-31.84-29.909h63.68C80.803 68.667 66.922 81.91 50 81.91z"></path></g><!----></svg>