<svg viewBox="0 0 30 38" fill="none" xmlns="http://www.w3.org/2000/svg">
<path d="M21.0508 0.320312L8.58594 3.66406L8.97266 5.06381L21.4336 1.72656L21.0508 0.320312Z" fill="black"/>
<path fill-rule="evenodd" clip-rule="evenodd" d="M2.883 36.5768C3.45133 37.1451 4.12883 37.4293 4.9155 37.4293H25.0845C25.8688 37.4293 26.5457 37.1446 27.115 36.5753C27.6843 36.006 27.969 35.3291 27.969 34.5448V7.33331H30V5.06381H21.446H8.97266H8.554H0V7.33331H2.031V34.5448C2.031 35.3311 2.315 36.0085 2.883 36.5768ZM4.3 7.33331H25.7V34.5448C25.7 34.6985 25.6358 34.8395 25.5075 34.9678C25.3795 35.0958 25.2385 35.1598 25.0845 35.1598H4.9155C4.74883 35.1598 4.6045 35.1021 4.4825 34.9868C4.36083 34.8715 4.3 34.7241 4.3 34.5448V7.33331ZM19.9385 30.9368H17.669V11.5063H19.9385V30.9368Z" fill="black"/>
<path d="M10.0615 30.9368H12.331V11.5063H10.0615V30.9368Z" fill="black"/>
<path d="M8.58594 3.66406L8.554 5.06381H8.97266L8.58594 3.66406Z" fill="black"/>
</svg>
